<!-- Generated by IcoMoon.io -->
<svg version="1.1" xmlns="http://www.w3.org/2000/svg" width="46" height="32" viewBox="0 0 46 32">
<title>chat</title>
<path d="M35.37 13.998c0-8.062-8.498-13.347-16.983-13.347-8.518 0-16.983 5.309-16.983 13.347 0 3.041 1.332 6.014 3.75 8.373 0.093 0.090 0.128 0.227 0.092 0.358-0.76 2.783-2.559 5.296-3.297 6.248-0.23 0.296-0.267 0.687-0.098 1.022 0.165 0.327 0.492 0.527 0.856 0.527 0.008 0 0.016 0 0.025-0 3.612-0.090 7.799-1.11 10.387-3.654 0.090-0.089 0.22-0.124 0.347-0.094 1.59 0.377 3.246 0.568 4.92 0.568 8.516-0 16.983-5.307 16.983-13.347zM13.765 25.518c-0.562-0.134-1.143 0.027-1.552 0.43-2.588 2.545-6.814 3.123-8.815 3.252 0.914-1.262 2.4-3.578 3.096-6.131 0.159-0.583-0.008-1.206-0.437-1.624-2.198-2.143-3.36-4.719-3.36-7.447 0-6.646 7.038-12.053 15.69-12.053s15.69 5.407 15.69 12.053c0 6.646-7.038 12.053-15.69 12.053-1.574 0-3.129-0.18-4.622-0.533z"></path>
<path d="M39.529 24.743c3.77-1.905 6.021-5.153 6.021-8.687 0-4.995-4.515-9.263-10.736-10.149-0.353-0.050-0.681 0.195-0.731 0.549s0.196 0.681 0.549 0.731c5.577 0.794 9.625 4.524 9.625 8.868 0 3.036-1.986 5.852-5.311 7.533-0.647 0.327-0.993 1.049-0.843 1.757 0.315 1.482 0.987 2.854 1.524 3.784-3.819-0.636-5.266-2.468-5.724-3.261-0.282-0.49-0.811-0.793-1.381-0.793-0.002 0-0.003 0-0.005 0h-0.047c-0.717 0-1.435-0.050-2.134-0.148-0.353-0.050-0.681 0.197-0.73 0.55s0.197 0.681 0.551 0.73c0.758 0.107 1.537 0.161 2.314 0.161h0.053c0.108 0 0.207 0.056 0.26 0.146 1.751 3.035 5.778 3.81 7.427 4.003 0.364 0.042 0.711-0.124 0.906-0.436s0.191-0.695-0.007-1.004c-0.497-0.774-1.384-2.323-1.741-4.002-0.029-0.134 0.038-0.272 0.161-0.334z"></path>
<path d="M8.324 11.685c-1.236 0-2.241 1.005-2.241 2.241s1.005 2.241 2.241 2.241c1.236 0 2.241-1.005 2.241-2.241s-1.005-2.241-2.241-2.241zM8.324 14.874c-0.523 0-0.948-0.425-0.948-0.948s0.425-0.948 0.948-0.948c0.523 0 0.948 0.425 0.948 0.948s-0.425 0.948-0.948 0.948z"></path>
<path d="M14.718 11.685c-1.236 0-2.241 1.005-2.241 2.241s1.005 2.241 2.241 2.241c1.236 0 2.241-1.005 2.241-2.241s-1.005-2.241-2.241-2.241zM14.718 14.874c-0.523 0-0.948-0.425-0.948-0.948s0.425-0.948 0.948-0.948c0.523 0 0.948 0.425 0.948 0.948s-0.425 0.948-0.948 0.948z"></path>
<path d="M21.111 11.685c-1.236 0-2.241 1.005-2.241 2.241s1.005 2.241 2.241 2.241c1.236 0 2.241-1.005 2.241-2.241s-1.005-2.241-2.241-2.241zM21.111 14.874c-0.523 0-0.948-0.425-0.948-0.948s0.425-0.948 0.948-0.948c0.523 0 0.948 0.425 0.948 0.948s-0.425 0.948-0.948 0.948z"></path>
<path d="M27.505 11.685c-1.236 0-2.241 1.005-2.241 2.241s1.006 2.241 2.241 2.241c1.236 0 2.241-1.005 2.241-2.241s-1.005-2.241-2.241-2.241zM27.505 14.874c-0.523 0-0.948-0.425-0.948-0.948s0.425-0.948 0.948-0.948c0.523 0 0.948 0.425 0.948 0.948s-0.425 0.948-0.948 0.948z"></path>
</svg>
