<!-- Generated by IcoMoon.io -->
<svg version="1.1" xmlns="http://www.w3.org/2000/svg" width="35" height="32" viewBox="0 0 35 32">
<title>chef-hat</title>
<path d="M25.172 8.292c-0.124 0-0.243-0.049-0.33-0.137s-0.137-0.207-0.137-0.33c-0.036-1.79-0.773-3.495-2.052-4.749s-2.999-1.956-4.789-1.956c-1.791 0-3.51 0.702-4.789 1.956s-2.016 2.958-2.052 4.749c0 0.124-0.049 0.243-0.137 0.33s-0.207 0.137-0.33 0.137c-0.124 0-0.243-0.049-0.33-0.137s-0.137-0.207-0.137-0.33c0.032-2.041 0.865-3.989 2.32-5.421s3.415-2.235 5.456-2.235c2.042 0 4.002 0.803 5.456 2.235s2.288 3.38 2.32 5.421c0 0.124-0.049 0.243-0.137 0.33s-0.206 0.137-0.33 0.137z"></path>
<path d="M26.536 18.868c-0.124 0.001-0.243-0.048-0.331-0.135s-0.138-0.206-0.139-0.33 0.048-0.243 0.135-0.331c0.087-0.088 0.206-0.138 0.33-0.139 1.78-0.010 3.484-0.719 4.747-1.973s1.984-2.954 2.007-4.733c-0.018-1.797-0.747-3.514-2.029-4.774s-3.011-1.96-4.808-1.947c-0.69-0.001-1.376 0.101-2.036 0.302-0.118 0.034-0.245 0.021-0.352-0.038s-0.189-0.157-0.225-0.274c-0.036-0.117-0.024-0.244 0.032-0.353s0.154-0.191 0.271-0.229c0.749-0.228 1.527-0.344 2.31-0.343 2.045-0.013 4.012 0.786 5.469 2.221s2.285 3.389 2.303 5.434c-0.024 2.025-0.842 3.961-2.277 5.389s-3.375 2.237-5.4 2.252h-0.006z"></path>
<path d="M9.188 18.868h-0.006c-2.026-0.014-3.965-0.823-5.4-2.252s-2.253-3.364-2.277-5.389c0.018-2.045 0.846-3.999 2.303-5.434s3.424-2.234 5.469-2.221c0.783-0.001 1.561 0.115 2.31 0.343 0.059 0.017 0.115 0.046 0.163 0.085s0.088 0.087 0.118 0.142c0.029 0.054 0.048 0.114 0.054 0.176s-0 0.124-0.018 0.183c-0.018 0.059-0.048 0.114-0.088 0.162s-0.088 0.087-0.143 0.116c-0.055 0.029-0.115 0.046-0.177 0.051s-0.124-0.002-0.183-0.021c-0.66-0.201-1.346-0.303-2.036-0.302-1.797-0.013-3.526 0.687-4.808 1.947s-2.011 2.977-2.029 4.774c0.023 1.78 0.744 3.479 2.007 4.733s2.968 1.963 4.747 1.973c0.061 0 0.122 0.013 0.179 0.037s0.108 0.059 0.151 0.102c0.043 0.044 0.077 0.096 0.1 0.152s0.035 0.118 0.034 0.179c-0 0.061-0.013 0.122-0.037 0.179s-0.059 0.108-0.102 0.151c-0.044 0.043-0.095 0.077-0.152 0.1s-0.118 0.035-0.179 0.035z"></path>
<path d="M26.536 30.495h-17.348c-0.124 0-0.243-0.049-0.33-0.137s-0.137-0.206-0.137-0.33v-11.626c0-0.124 0.049-0.243 0.137-0.33s0.207-0.137 0.33-0.137c0.124 0 0.243 0.049 0.33 0.137s0.137 0.206 0.137 0.33v11.158h16.413v-11.158c0-0.124 0.049-0.243 0.137-0.33s0.206-0.137 0.33-0.137 0.243 0.049 0.33 0.137c0.088 0.088 0.137 0.206 0.137 0.33v11.626c0 0.124-0.049 0.243-0.137 0.33s-0.206 0.137-0.33 0.137z"></path>
<path d="M29.788 25.966h-17.348c-0.124 0-0.243-0.049-0.33-0.137s-0.137-0.206-0.137-0.33c0-0.124 0.049-0.243 0.137-0.33s0.207-0.137 0.33-0.137h17.348c0.124 0 0.243 0.049 0.33 0.137s0.137 0.206 0.137 0.33-0.049 0.243-0.137 0.33c-0.088 0.088-0.206 0.137-0.33 0.137z"></path>
</svg>
