<!-- Generated by IcoMoon.io -->
<svg version="1.1" xmlns="http://www.w3.org/2000/svg" width="71" height="32" viewBox="0 0 71 32">
<title>logo</title>
<path d="M42.398 15.997c0 0.261-0.008 0.521 0 0.783 0.089 2.653-0.738 5.043-2.067 7.296-0.445 0.756-0.871 1.524-1.255 2.314-0.316 0.649-0.756 1.104-1.44 1.37-0.382 0.148-0.736 0.405-1.056 0.669-1.474 1.218-3.146 2.091-4.935 2.705-1.188 0.408-2.411 0.767-3.702 0.751-0.385-0.004-0.77 0.114-1.156 0.115s-0.771-0.124-1.153-0.108c-1.664 0.071-3.206-0.441-4.736-0.979-1.671-0.587-3.146-1.513-4.533-2.617-1.958-1.558-3.354-3.519-4.379-5.765-0.553-1.211-1.003-2.46-1.13-3.804-0.021-0.223-0.095-0.444-0.16-0.66-0.465-1.507-0.198-2.985 0.090-4.486 0.22-1.148 0.447-2.283 0.876-3.373 1.134-2.884 2.934-5.245 5.428-7.1 2.079-1.545 4.406-2.494 6.936-2.902 2.903-0.468 5.737-0.131 8.487 0.963 1.372 0.548 2.667 1.241 3.797 2.159 1.055 0.856 2.006 1.858 2.905 2.883 0.814 0.928 1.393 2.034 1.909 3.162 0.806 1.762 1.332 3.586 1.279 5.546-0.012 0.362-0.003 0.721-0.004 1.080zM41.284 12.427c-0.080-0.616-0.13-1.329-0.281-2.022-0.428-1.992-1.581-3.548-3.117-4.818-0.872-0.722-1.823-1.349-2.76-1.988-0.317-0.216-0.686-0.415-1.057-0.481-0.953-0.176-1.916-0.34-2.882-0.389-1.676-0.085-3.182-0.518-4.447-1.685-0.931-0.858-1.946-0.941-2.914-0.186-1.097 0.855-2.346 1.357-3.619 1.854-0.933 0.364-1.831 0.823-2.728 1.276-0.749 0.379-1.186 0.971-1.176 1.867 0.006 0.503-0.224 0.923-0.689 1.201-0.388 0.234-0.761 0.492-1.116 0.773-0.992 0.781-1.765 1.661-1.932 3.027-0.132 1.080-0.459 2.148-1.198 3.038-0.247 0.306-0.4 0.677-0.441 1.069-0.068 0.807-0.040 1.625-0.020 2.437 0.006 0.217 0.1 0.45 0.211 0.642 0.255 0.452 0.534 0.891 0.834 1.315 0.726 1.010 1.358 2.046 1.504 3.329 0.141 1.244 0.741 2.257 1.757 3.030 1.471 1.121 2.889 2.311 4.381 3.402 0.802 0.588 1.661 1.102 2.72 1.221s2.096 0.408 3.045 0.941c0.199 0.107 0.417 0.174 0.642 0.197 1.339 0.144 2.578-0.187 3.754-0.814 0.369-0.197 0.748-0.375 1.13-0.546 0.919-0.412 1.937-0.682 2.738-1.255 0.89-0.639 1.842-0.923 2.864-1.101 0.441-0.077 0.802-0.259 1.090-0.588 0.343-0.39 0.66-0.802 1.018-1.179 0.37-0.389 0.636-0.802 0.701-1.356 0.099-0.849 0.462-1.599 0.923-2.319 0.78-1.217 1.223-2.562 1.454-3.992 0.061-0.375 0.095-0.692-0.091-1.023-0.537-0.953-0.318-2.035-0.487-3.049-0.086-0.548 0.112-1.148 0.195-1.832l-0.002 0.001zM34.823 2.909c-0.227-0.251-0.298-0.364-0.401-0.434-0.185-0.128-0.388-0.233-0.585-0.344-1.685-0.95-3.53-1.412-5.416-1.743-0.379-0.067-0.777-0.037-1.163-0.022-0.101 0.004-0.221 0.102-0.284 0.19-0.029 0.040 0.037 0.18 0.092 0.248 0.419 0.5 0.966 0.878 1.583 1.092 1.064 0.383 2.184 0.594 3.315 0.623 0.479 0.013 0.957 0.104 1.434 0.169 0.407 0.058 0.813 0.127 1.426 0.223zM20.507 30.284c-1.131-0.925-2.122-1.752-3.131-2.556-0.835-0.666-1.689-1.309-2.542-1.952-0.096-0.072-0.247-0.070-0.457-0.124 1.029 1.728 4.464 4.354 6.131 4.632zM12.887 8.699c0.682-0.521 1.313-1.070 2.006-1.524 0.971-0.633 1.343-1.421 1.113-2.773-0.689 0.564-1.181 1.244-1.712 1.861-0.562 0.651-0.978 1.426-1.446 2.155-0.036 0.059 0.022 0.175 0.039 0.281zM35.889 28.421c-0.636-0.044-1.277 0.069-1.676 0.412-0.757 0.652-1.658 0.98-2.575 1.306-0.481 0.171-0.935 0.422-1.389 0.662-0.063 0.033-0.074 0.209-0.061 0.313 0.004 0.035 0.174 0.092 0.244 0.069 0.823-0.281 1.674-0.507 2.453-0.883 0.956-0.459 1.853-1.040 2.768-1.579 0.096-0.054 0.146-0.181 0.236-0.299zM11.582 19.381c-0.183 0.54-0.147 0.838-0.032 1.156 0.319 0.883 0.513 1.814 1.088 2.585 0.213 0.286 0.257 0.925 0.65 0.787 0.346-0.12-0.059-0.627-0.083-0.968-0.091-1.304-0.776-2.355-1.623-3.561zM17.753 3.142l0.085 0.129c0.475-0.176 0.955-0.343 1.426-0.532 1.023-0.41 2.042-0.829 3.059-1.254 0.205-0.087 0.393-0.225 0.568-0.366 0.049-0.040 0.040-0.175 0.025-0.258-0.008-0.037-0.105-0.078-0.16-0.080-0.095 0.002-0.19 0.018-0.281 0.047-1.382 0.393-2.685 0.974-3.932 1.68-0.292 0.165-0.528 0.422-0.79 0.636zM42.019 17.147c0.084-0.097 0.149-0.138 0.153-0.183 0.135-1.421-0.016-2.829-0.21-4.233-0.010-0.071-0.108-0.172-0.174-0.18-0.073-0.010-0.188 0.051-0.232 0.117-0.073 0.104-0.119 0.225-0.132 0.352-0.073 1.158 0.003 2.321 0.227 3.46 0.044 0.23 0.234 0.432 0.369 0.668zM11.248 13.227c0.539-0.206 0.62-0.578 0.678-0.915 0.141-0.82 0.493-1.61 0.377-2.477-0.564 1.035-1.064 2.083-1.054 3.392h-0zM24.298 31.234c-1.209-0.535-1.537-0.591-2.613-0.441 0.456 0.173 0.867 0.448 1.279 0.452 0.43 0.006 0.897 0.534 1.334-0.011h-0z"></path>
<path d="M26.79 20.593c-0.826-0.015-1.394-0.361-1.815-1.030-0.392-0.624-1.043-0.947-1.64-1.332-0.752-0.484-1.364-1.031-1.538-2.012-0.12-0.666 0.020-1.244 0.29-1.769 0.227-0.439 0.631-0.847 1.056-1.108 0.461-0.283 0.843-0.55 1.055-1.073 0.241-0.602 0.847-0.638 1.384-0.746 0.506-0.102 1.020-0.167 1.519-0.295 0.682-0.174 1.301-0.12 1.799 0.411 0.385 0.412 0.835 0.708 1.336 0.958 0.522 0.26 0.694 0.564 0.53 1.107-0.111 0.369-0.004 0.62 0.134 0.914 0.15 0.321 0.305 0.647 0.408 0.986 0.343 1.128-0.052 2.077-1.109 2.58-0.656 0.311-1.157 0.726-1.321 1.456-0.065 0.294-0.249 0.461-0.508 0.537-0.523 0.153-1.054 0.28-1.581 0.417zM30.26 15.864c0.017-1.987-1.488-3.576-3.446-3.579-1.756 0-3.523 1.189-3.592 3.469-0.055 1.824 1.464 3.524 3.443 3.53 2.411 0.012 3.548-1.663 3.595-3.42zM23.203 17.764c0-0.255 0.024-0.385-0.004-0.503-0.26-1.079-0.428-2.148 0.161-3.188 0.043-0.075-0.055-0.229-0.088-0.346-0.116 0.037-0.255 0.045-0.343 0.117-0.973 0.799-1.407 2.718 0.274 3.92zM26.816 11.787c0.407 0.149 0.639 0.255 0.883 0.321 0.897 0.237 1.662 0.664 2.194 1.451 0.105 0.155 0.241 0.385 0.441 0.209 0.107-0.094 0.142-0.382 0.080-0.526-0.083-0.191-0.272-0.43-0.453-0.468-0.493-0.103-0.762-0.46-1.083-0.771-0.54-0.519-1.143-0.682-2.062-0.215zM26.761 19.609l-0.012-0.075c-0.258 0-0.519-0.022-0.773 0.009-0.131 0.016-0.25 0.127-0.373 0.195 0.113 0.1 0.211 0.257 0.341 0.29 0.695 0.175 1.395 0.213 2.081-0.055 0.117-0.046 0.248-0.106 0.321-0.201 0.065-0.080 0.086-0.223 0.073-0.331-0.005-0.040-0.167-0.101-0.248-0.088-0.471 0.074-0.939 0.167-1.407 0.254l-0.002 0.001zM30.314 17.571c0.482-0.089 0.696-0.361 0.725-0.779 0.021-0.352 0.016-0.705-0.015-1.056-0.008-0.093-0.137-0.175-0.21-0.263-0.107 0.101-0.325 0.238-0.305 0.299 0.195 0.609-0.213 1.155-0.194 1.797v0.001z"></path>
<path d="M34.718 20.323c-0.028 0.014-0.139 0.107-0.26 0.12-0.11 0.013-0.27-0.024-0.339-0.101-0.342-0.386-0.674-0.783-0.981-1.199-0.080-0.109-0.113-0.401-0.067-0.426 0.15-0.083 0.444-0.17 0.51-0.098 0.387 0.427 0.728 0.897 1.078 1.357 0.034 0.046 0.024 0.125 0.059 0.346z"></path>
<path d="M18.329 23.668c0.179 0.014 0.532 0.025 0.877 0.084 0.086 0.015 0.201 0.183 0.201 0.283s-0.099 0.274-0.185 0.295c-0.67 0.166-1.337 0.207-1.93-0.241-0.034-0.031-0.059-0.070-0.076-0.112s-0.023-0.089-0.019-0.134c0.013-0.067 0.117-0.16 0.187-0.165 0.257-0.022 0.515-0.010 0.945-0.010z"></path>
<path d="M39.324 9.562l0.254 0.139c-0.072 0.129-0.116 0.336-0.221 0.373-0.482 0.177-0.977 0.319-1.481 0.423-0.145 0.028-0.355-0.114-0.489-0.231-0.154-0.136-0.062-0.431 0.132-0.461 0.571-0.088 1.146-0.155 1.804-0.242z"></path>
<path d="M22.269 26.541c0.268 0.125 0.492 0.16 0.602 0.294 0.3 0.372 0.574 0.764 0.821 1.174 0.12 0.195 0.010 0.406-0.192 0.462-0.111 0.031-0.313-0.060-0.394-0.16-0.327-0.394-0.63-0.807-0.907-1.238-0.064-0.102 0.035-0.308 0.071-0.532z"></path>
<path d="M32.785 11.018c0.017-0.114 0-0.244 0.053-0.294 0.072-0.066 0.227-0.12 0.301-0.085 0.102 0.049 0.167 0.182 0.237 0.286 0.194 0.291 0.386 0.584 0.571 0.882 0.083 0.134 0.194 0.276 0.201 0.42 0.008 0.133-0.073 0.306-0.173 0.398-0.056 0.051-0.286 0.018-0.342-0.053-0.371-0.471-0.815-0.913-0.848-1.554z"></path>
<path d="M33.938 6.010c-0.080 0.481-0.112 0.836-0.206 1.175-0.059 0.183-0.17 0.345-0.321 0.465-0.106 0.086-0.292 0.073-0.441 0.105-0.012-0.14-0.056-0.286-0.030-0.419 0.078-0.41 0.183-0.815 0.277-1.222 0.007-0.032 0.005-0.065 0.014-0.096 0.074-0.245 0.234-0.432 0.489-0.331 0.129 0.051 0.189 0.276 0.218 0.323z"></path>
<path d="M27.021 9.141c0.226 0.028 0.517 0.043 0.796 0.111 0.095 0.023 0.235 0.194 0.219 0.268-0.029 0.132-0.139 0.306-0.255 0.345-0.184 0.057-0.381 0.058-0.565 0.003-0.321-0.102-0.62-0.136-0.94-0.002-0.21 0.088-0.408-0.004-0.464-0.214-0.075-0.281 0.136-0.417 0.373-0.456 0.253-0.042 0.514-0.035 0.836-0.054z"></path>
<path d="M32.025 22.97c-0.091 0.398-0.16 0.748-0.259 1.089-0.019 0.067-0.16 0.157-0.22 0.142-0.107-0.026-0.257-0.11-0.278-0.198-0.048-0.189-0.053-0.386-0.016-0.577 0.075-0.35 0.15-0.682 0.008-1.039-0.067-0.171-0.048-0.444 0.212-0.444 0.14 0 0.341 0.173 0.404 0.317 0.102 0.229 0.109 0.499 0.149 0.71z"></path>
<path d="M28.077 22.868c-0.052 0.093-0.077 0.204-0.146 0.251-0.422 0.291-0.846 0.584-1.29 0.838-0.113 0.065-0.313 0.025-0.458-0.018-0.212-0.063-0.256-0.342-0.080-0.455 0.486-0.312 0.975-0.621 1.476-0.908 0.080-0.046 0.241 0.004 0.344 0.055 0.070 0.035 0.1 0.149 0.154 0.237z"></path>
<path d="M22.695 4.155c0.069 0.040 0.198 0.075 0.215 0.139 0.168 0.618 0.329 1.238 0.463 1.864 0.037 0.174-0.193 0.27-0.347 0.166-0.485-0.327-0.787-1.536-0.504-2.042 0.029-0.050 0.101-0.075 0.174-0.128z"></path>
<path d="M28.689 5.911c-0.146-0.097-0.304-0.147-0.325-0.231-0.023-0.091 0.053-0.247 0.134-0.321 0.356-0.318 0.728-0.618 1.115-0.897 0.13-0.092 0.401-0.157 0.502-0.085 0.237 0.166 0.112 0.401-0.053 0.573-0.221 0.231-0.441 0.475-0.696 0.662-0.196 0.141-0.447 0.201-0.677 0.299z"></path>
<path d="M19.466 9.177l-0.355 0.335c-0.101-0.109-0.251-0.201-0.294-0.331-0.17-0.512-0.313-1.033-0.448-1.555-0.018-0.072 0.040-0.219 0.1-0.243 0.098-0.040 0.26-0.056 0.335 0 0.147 0.109 0.315 0.254 0.363 0.418 0.126 0.425 0.193 0.87 0.298 1.377z"></path>
<path d="M15.583 17.757c-0.325 0.596-0.572 1.207-1.178 1.533-0.102 0.055-0.327-0.015-0.436-0.102-0.185-0.147 0-0.27 0.090-0.395 0.284-0.392 0.547-0.8 0.849-1.176 0.078-0.097 0.276-0.144 0.41-0.131 0.091 0.008 0.166 0.164 0.265 0.272z"></path>
<path d="M19.258 17.807c0.17 0.098 0.293 0.128 0.316 0.192 0.038 0.106 0.057 0.272 0 0.346-0.093 0.117-0.252 0.185-0.39 0.263-0.356 0.204-0.707 0.42-1.077 0.594-0.113 0.053-0.317 0.037-0.417-0.035-0.207-0.147-0.134-0.383 0.032-0.487 0.508-0.318 1.042-0.597 1.536-0.873z"></path>
<path d="M37.652 15.106c-0.131 0.295-0.315 0.74-0.532 1.167-0.034 0.066-0.245 0.102-0.334 0.063-0.083-0.037-0.174-0.205-0.157-0.295 0.087-0.475 0.184-0.952 0.331-1.411 0.045-0.14 0.248-0.267 0.404-0.314 0.058-0.017 0.209 0.201 0.281 0.334 0.041 0.075 0.007 0.191 0.007 0.457z"></path>
<path d="M15.481 11.562c0.576 0.517 0.507 1.218 0.571 1.866 0.012 0.12-0.138 0.292-0.257 0.379-0.063 0.046-0.317-0.028-0.323-0.070-0.091-0.654-0.16-1.312-0.216-1.971-0.004-0.056 0.131-0.125 0.225-0.205z"></path>
<path d="M28.934 27.56c0.097 0.026 0.191 0.057 0.284 0.093 0.346 0.16 0.694 0.317 1.031 0.493 0.16 0.083 0.321 0.188 0.436 0.321 0.133 0.154-0.019 0.451-0.205 0.41-0.627-0.136-1.24-0.325-1.71-0.794-0.069-0.069-0.068-0.243-0.045-0.358 0.013-0.065 0.134-0.11 0.208-0.165z"></path>
<path d="M21.298 11.751c0.033 0.104 0.147 0.265 0.107 0.366-0.211 0.536-0.455 1.059-0.703 1.578-0.030 0.064-0.16 0.12-0.238 0.11-0.067-0.008-0.16-0.103-0.178-0.175-0.132-0.579 0.283-1.615 0.746-1.876 0.048-0.027 0.124-0.004 0.266-0.004z"></path>
<path d="M39.24 20.539c-0.072-0.046-0.223-0.102-0.301-0.209-0.031-0.043 0.070-0.239 0.157-0.301 0.386-0.281 0.78-0.549 1.191-0.789 0.111-0.065 0.341-0.069 0.422 0.003 0.075 0.067 0.086 0.321 0.018 0.414-0.344 0.48-0.778 0.846-1.488 0.883z"></path>
<path d="M36.856 24.67c-0.298-0.031-0.427-0.034-0.551-0.062-0.053-0.012-0.131-0.074-0.132-0.114-0.006-0.091 0.018-0.182 0.068-0.259 0.064-0.072 0.148-0.125 0.241-0.15 0.459-0.138 0.918-0.276 1.384-0.388 0.101-0.024 0.314 0.043 0.327 0.1 0.031 0.137-0.006 0.303-0.060 0.441-0.028 0.073-0.142 0.134-0.229 0.16-0.399 0.11-0.799 0.207-1.048 0.272z"></path>
<path d="M23.036 21.355c-0.033 0.14-0.086 0.45-0.189 0.742-0.026 0.073-0.226 0.142-0.319 0.116s-0.201-0.179-0.198-0.274c0.010-0.541 0.037-1.083 0.092-1.622 0.012-0.117 0.16-0.221 0.246-0.331 0.103 0.109 0.269 0.205 0.295 0.329 0.058 0.279 0.046 0.573 0.073 1.038z"></path>
<path d="M44.544 4.422c0-1.146 0.277-2.016 0.832-2.608 0.561-0.598 1.279-0.898 2.154-0.898s1.572 0.258 2.088 0.775c0.523 0.516 0.784 1.342 0.784 2.475s-0.277 1.99-0.832 2.57c-0.554 0.579-1.294 0.869-2.221 0.869-0.8 0-1.455-0.23-1.965-0.69-0.265-0.239-0.472-0.57-0.624-0.992-0.145-0.428-0.217-0.929-0.217-1.502zM47.502 1.012c-0.636 0-1.159 0.283-1.569 0.85-0.403 0.567-0.605 1.398-0.605 2.494s0.192 1.896 0.576 2.4c0.384 0.504 0.895 0.756 1.531 0.756 0.643 0 1.165-0.283 1.569-0.85 0.409-0.573 0.614-1.401 0.614-2.485 0-1.090-0.195-1.89-0.586-2.4-0.384-0.51-0.895-0.765-1.531-0.765z"></path>
<path d="M52.037 7.569h-0.784v-6.614h0.784v3.042h3.071v-3.042h0.784v6.614h-0.784v-3.477h-3.071v3.477z"></path>
<path d="M59.924 7.569h-0.123l0.822-6.614h0.312l1.984 6.113 1.975-6.113h0.312l0.822 6.614h-0.784l-0.652-5.291-1.71 5.291h-0.595l-1.729-5.225-0.633 5.225z"></path>
<path d="M71.262 0.955c0.12 0.12 0.18 0.274 0.18 0.463 0 0.157-0.035 0.318-0.104 0.482l-1.691 3.43v2.239h-0.784v-2.031l-1.89-4.582h0.803l1.805 4.261 1.644-3.316c0.069-0.157 0.104-0.321 0.104-0.491s-0.047-0.302-0.142-0.397l0.076-0.057z"></path>
<path d="M1.332 9.306c0.488-0.022 0.966-0.033 1.432-0.033 0.477 0 0.977 0.050 1.499 0.15 0.533 0.1 1.055 0.289 1.565 0.566 0.522 0.266 0.96 0.616 1.315 1.049 0.366 0.422 0.66 0.982 0.883 1.682s0.333 1.548 0.333 2.547c0 0.999-0.167 1.898-0.5 2.697-0.322 0.788-0.766 1.393-1.332 1.815-1.099 0.821-2.426 1.232-3.98 1.232-0.544 0-1.116-0.022-1.715-0.067h-0.833v-11.638h1.332zM1.382 20.811c0.233 0.022 0.527 0.033 0.883 0.033s0.622-0.006 0.799-0.017c0.178-0.011 0.422-0.055 0.733-0.133 0.311-0.089 0.599-0.205 0.866-0.35s0.544-0.355 0.833-0.633c0.3-0.289 0.555-0.627 0.766-1.016 0.477-0.91 0.716-2.098 0.716-3.563 0-1.043-0.128-1.942-0.383-2.697-0.255-0.766-0.55-1.332-0.883-1.698-0.322-0.366-0.716-0.655-1.182-0.866-0.466-0.222-0.838-0.35-1.116-0.383s-0.599-0.050-0.966-0.050-0.722 0.017-1.066 0.050v11.321z"></path>
<path d="M44.814 20.944h-0.216v-11.654h0.566l6.927 10.772v-10.772h0.216v11.654h-1.216l-6.278-9.656v9.656z"></path>
<path d="M62.561 9.29h0.216v6.66c0 1.743-0.344 3.025-1.032 3.846-0.688 0.81-1.587 1.215-2.698 1.215-0.699 0-1.293-0.061-1.782-0.183-0.488-0.133-0.949-0.372-1.382-0.716-0.888-0.688-1.332-2.076-1.332-4.162v-6.66h1.382v6.643c0 2.020 0.305 3.369 0.916 4.046 0.311 0.333 0.633 0.561 0.966 0.683 0.344 0.122 0.755 0.183 1.232 0.183 1.066 0 1.915-0.388 2.548-1.165 0.644-0.788 0.966-2.037 0.966-3.746v-6.643z"></path>
<path d="M68.458 20.944h-1.382v-11.488h-2.881v-0.166h7.16v0.166h-2.897v11.488z"></path>
</svg>
