<!-- Generated by IcoMoon.io -->
<svg version="1.1" xmlns="http://www.w3.org/2000/svg" width="35" height="32" viewBox="0 0 35 32">
<title>people</title>
<path d="M11.976 0.729c-3.63 0-6.587 2.957-6.587 6.587s2.957 6.587 6.587 6.587c3.63 0 6.587-2.957 6.587-6.587s-2.957-6.587-6.587-6.587zM11.976 12.799c-3.031 0-5.489-2.465-5.489-5.489s2.465-5.489 5.489-5.489c3.031 0 5.489 2.465 5.489 5.489s-2.465 5.489-5.489 5.489z"></path>
<path d="M25.467 3.463c-2.728 0-4.944 2.216-4.944 4.944s2.216 4.944 4.944 4.944c2.728 0 4.944-2.216 4.944-4.944s-2.216-4.944-4.944-4.944zM25.467 12.26c-2.122 0-3.846-1.724-3.846-3.846s1.724-3.846 3.846-3.846c2.122 0 3.846 1.724 3.846 3.846s-1.724 3.846-3.846 3.846z"></path>
<path d="M34.31 20.599c-0.498-3.004-2.364-5.537-5.543-6.864 0 0-1.408 1.064-3.3 1.031-2.068-0.040-3.3-1.031-3.3-1.031s-1.536 0.572-2.775 1.765c-1.145-1.017-3.078-1.846-3.078-1.846s-1.771 1.347-4.344 1.327c-2.701-0.020-4.331-1.327-4.331-1.327s-5.84 2.007-7.072 8.817c0 0-1.32 3.61 1.738 9.005h19.351c0 0 1.374-2.391 1.616-3.846h9.625c2.364-3.583 1.414-7.032 1.414-7.032zM20.974 30.378h-17.991c-2.351-4.466-1.334-7.726-1.334-7.726 0.573-3.415 2.768-6.298 5.907-7.759 2.694 1.583 6.15 1.583 8.844 0 3.139 1.462 5.335 4.344 5.907 7.759-0.007 0 0.97 4.014-1.334 7.726zM32.256 26.533h-8.763c0.337-1.94-0.108-4.061-0.108-4.061-0.397-2.398-1.529-4.56-3.186-6.23 0.566-0.512 1.192-0.936 1.879-1.266 2.068 1.185 4.701 1.185 6.769 0 2.324 1.111 3.954 3.26 4.378 5.806 0 0 0.802 2.721-0.97 5.752z"></path>
</svg>
